<svg width="24" height="24" viewBox="0 0 24 24" fill="none" xmlns="http://www.w3.org/2000/svg">
<path fill-rule="evenodd" clip-rule="evenodd" d="M4.5 12C4.5 11.1716 5.17157 10.5 6 10.5H18C18.8284 10.5 19.5 11.1716 19.5 12V20C19.5 20.8284 18.8284 21.5 18 21.5H6C5.17157 21.5 4.5 20.8284 4.5 20V12ZM6 11.5C5.72386 11.5 5.5 11.7239 5.5 12V20C5.5 20.2761 5.72386 20.5 6 20.5H18C18.2761 20.5 18.5 20.2761 18.5 20V12C18.5 11.7239 18.2761 11.5 18 11.5H6Z" fill="#455A64"/>
<path fill-rule="evenodd" clip-rule="evenodd" d="M6.5 8C6.5 4.96243 8.96243 2.5 12 2.5C15.0376 2.5 17.5 4.96243 17.5 8V11C17.5 11.2761 17.2761 11.5 17 11.5H7C6.72386 11.5 6.5 11.2761 6.5 11V8ZM12 3.5C9.51472 3.5 7.5 5.51472 7.5 8V10.5H16.5V8C16.5 5.51472 14.4853 3.5 12 3.5Z" fill="#455A64"/>
</svg>
