<svg width="24" height="24" viewBox="0 0 24 24" fill="none" xmlns="http://www.w3.org/2000/svg">
<path fill-rule="evenodd" clip-rule="evenodd" d="M12 1.5C6.20101 1.5 1.5 6.20101 1.5 12C1.5 17.799 6.20101 22.5 12 22.5C17.799 22.5 22.5 17.799 22.5 12C22.5 6.20101 17.799 1.5 12 1.5ZM5.64532 4.93816C7.32858 3.42247 9.55656 2.5 12 2.5C17.2467 2.5 21.5 6.75329 21.5 12C21.5 14.4434 20.5775 16.6714 19.0618 18.3547L5.64532 4.93816ZM4.93821 5.64526C3.4225 7.32853 2.5 9.55653 2.5 12C2.5 17.2467 6.75329 21.5 12 21.5C14.4435 21.5 16.6715 20.5775 18.3547 19.0618L4.93821 5.64526Z" fill="#455A64"/>
</svg>
