<svg width="24" height="24" viewBox="0 0 24 24" fill="none" xmlns="http://www.w3.org/2000/svg">
<path fill-rule="evenodd" clip-rule="evenodd" d="M11.9393 17.8536C11.7441 17.6583 11.7441 17.3417 11.9393 17.1464L16.5858 12.5L11.9393 7.85355C11.7441 7.65829 11.7441 7.34171 11.9393 7.14645C12.1346 6.95118 12.4512 6.95118 12.6464 7.14645L18 12.5L12.6464 17.8536C12.4512 18.0488 12.1346 18.0488 11.9393 17.8536Z" fill="#455A64"/>
<path fill-rule="evenodd" clip-rule="evenodd" d="M5.93934 17.8536C5.74408 17.6583 5.74408 17.3417 5.93934 17.1464L10.5858 12.5L5.93934 7.85355C5.74408 7.65829 5.74408 7.34171 5.93934 7.14645C6.1346 6.95118 6.45119 6.95118 6.64645 7.14645L12 12.5L6.64645 17.8536C6.45119 18.0488 6.1346 18.0488 5.93934 17.8536Z" fill="#455A64"/>
</svg>
