<svg width="24" height="24" viewBox="0 0 24 24" fill="none" xmlns="http://www.w3.org/2000/svg">
<path fill-rule="evenodd" clip-rule="evenodd" d="M15.2322 4.06066C16.2085 3.08435 17.7915 3.08435 18.7678 4.06066L19.9393 5.23224C20.9157 6.20855 20.9157 7.79146 19.9393 8.76777L8.93934 19.7678C8.4705 20.2366 7.83461 20.5 7.17157 20.5L3.5 20.5L3.5 16.8284C3.5 16.1654 3.76339 15.5295 4.23223 15.0607L15.2322 4.06066ZM18.0607 4.76777C17.4749 4.18198 16.5251 4.18198 15.9393 4.76777L4.93934 15.7678C4.65804 16.0491 4.5 16.4306 4.5 16.8284L4.5 19.5H7.17157C7.5694 19.5 7.95093 19.342 8.23223 19.0607L19.2322 8.06066C19.818 7.47488 19.818 6.52513 19.2322 5.93934L18.0607 4.76777Z" fill="#455A64"/>
<path fill-rule="evenodd" clip-rule="evenodd" d="M17.2929 10L14 6.70711L14.6046 6.10247L17.9067 9.38624L17.2929 10Z" fill="#455A64"/>
</svg>
