<svg width="24" height="24" viewBox="0 0 24 24" fill="none" xmlns="http://www.w3.org/2000/svg">
<path fill-rule="evenodd" clip-rule="evenodd" d="M11.3536 6.64645C11.5489 6.84171 11.5489 7.15829 11.3536 7.35355L6.70718 12L11.3536 16.6464C11.5489 16.8417 11.5489 17.1583 11.3536 17.3536C11.1584 17.5488 10.8418 17.5488 10.6465 17.3536L5.29297 12L10.6465 6.64645C10.8418 6.45118 11.1584 6.45118 11.3536 6.64645Z" fill="#455A64"/>
<path fill-rule="evenodd" clip-rule="evenodd" d="M17.3536 6.64645C17.5489 6.84171 17.5489 7.15829 17.3536 7.35355L12.7072 12L17.3536 16.6464C17.5489 16.8417 17.5489 17.1583 17.3536 17.3536C17.1584 17.5488 16.8418 17.5488 16.6465 17.3536L11.293 12L16.6465 6.64645C16.8418 6.45118 17.1584 6.45118 17.3536 6.64645Z" fill="#455A64"/>
</svg>
